<svg width="1008" height="143" viewBox="0 0 1008 143" fill="none" xmlns="http://www.w3.org/2000/svg">
<path d="M0.669744 37H6.99361V22.1705H21.4993V16.8693H6.99361V7.39205H23.0334V2.09091H0.669744V37ZM28.147 37H34.3175V21.608C34.3175 18.2841 36.8232 15.9318 40.2152 15.9318C41.255 15.9318 42.5504 16.1193 43.0788 16.2898V10.6136C42.5163 10.5114 41.5447 10.4432 40.8629 10.4432C37.8629 10.4432 35.3572 12.1477 34.4027 15.1818H34.13V10.8182H28.147V37ZM57.5206 37.5114C65.1911 37.5114 70.0661 32.108 70.0661 24.0114C70.0661 15.8977 65.1911 10.4773 57.5206 10.4773C49.8501 10.4773 44.9751 15.8977 44.9751 24.0114C44.9751 32.108 49.8501 37.5114 57.5206 37.5114ZM57.5547 32.5682C53.3104 32.5682 51.2308 28.7841 51.2308 23.9943C51.2308 19.2045 53.3104 15.3693 57.5547 15.3693C61.7308 15.3693 63.8104 19.2045 63.8104 23.9943C63.8104 28.7841 61.7308 32.5682 57.5547 32.5682ZM75.3033 37H81.4737V21.0795C81.4737 17.858 83.6214 15.6761 86.2805 15.6761C88.8885 15.6761 90.6783 17.4318 90.6783 20.125V37H96.7294V20.6705C96.7294 17.7216 98.4851 15.6761 101.468 15.6761C103.957 15.6761 105.934 17.142 105.934 20.3807V37H112.121V19.4261C112.121 13.5795 108.746 10.4773 103.94 10.4773C100.138 10.4773 97.2408 12.3523 96.0817 15.267H95.8089C94.8033 12.3011 92.2635 10.4773 88.7351 10.4773C85.2237 10.4773 82.5987 12.2841 81.5078 15.267H81.201V10.8182H75.3033V37ZM130.56 37H136.629V32.875H136.987C137.958 34.7841 139.987 37.4602 144.487 37.4602C150.657 37.4602 155.276 32.5682 155.276 23.9432C155.276 15.2159 150.521 10.4773 144.469 10.4773C139.85 10.4773 137.924 13.2557 136.987 15.1477H136.731V2.09091H130.56V37ZM136.612 23.9091C136.612 18.8295 138.793 15.5398 142.765 15.5398C146.873 15.5398 148.987 19.0341 148.987 23.9091C148.987 28.8182 146.839 32.3977 142.765 32.3977C138.827 32.3977 136.612 28.9886 136.612 23.9091ZM172.113 37.5114C178.215 37.5114 182.408 34.5284 183.499 29.9773L177.738 29.3295C176.903 31.5455 174.857 32.7045 172.198 32.7045C168.21 32.7045 165.567 30.0795 165.516 25.5966H183.755V23.7045C183.755 14.517 178.232 10.4773 171.789 10.4773C164.289 10.4773 159.397 15.983 159.397 24.0625C159.397 32.2784 164.221 37.5114 172.113 37.5114ZM165.533 21.4375C165.721 18.0966 168.192 15.2841 171.874 15.2841C175.42 15.2841 177.806 17.875 177.84 21.4375H165.533ZM200.362 47.3636C207.435 47.3636 212.651 44.125 212.651 37.4261V10.8182H206.566V15.1477H206.225C205.288 13.2557 203.327 10.4773 198.708 10.4773C192.657 10.4773 187.901 15.2159 187.901 23.8239C187.901 32.3636 192.657 36.625 198.691 36.625C203.174 36.625 205.271 34.2216 206.225 32.2955H206.532V37.2557C206.532 41.108 203.975 42.6932 200.464 42.6932C196.748 42.6932 195.112 40.9375 194.362 39.4034L188.805 40.75C189.93 44.4148 193.697 47.3636 200.362 47.3636ZM200.413 31.7841C196.339 31.7841 194.191 28.6136 194.191 23.7898C194.191 19.0341 196.305 15.5398 200.413 15.5398C204.384 15.5398 206.566 18.8295 206.566 23.7898C206.566 28.7841 204.35 31.7841 200.413 31.7841ZM218.975 37H225.146V10.8182H218.975V37ZM222.077 7.10227C224.038 7.10227 225.64 5.60227 225.64 3.76136C225.64 1.90341 224.038 0.403408 222.077 0.403408C220.1 0.403408 218.498 1.90341 218.498 3.76136C218.498 5.60227 220.1 7.10227 222.077 7.10227ZM237.661 21.6591C237.661 17.875 239.945 15.6932 243.201 15.6932C246.388 15.6932 248.298 17.7898 248.298 21.2841V37H254.468V20.3295C254.485 14.0568 250.906 10.4773 245.502 10.4773C241.582 10.4773 238.888 12.3523 237.695 15.267H237.388V10.8182H231.491V37H237.661V21.6591ZM266.911 21.6591C266.911 17.875 269.195 15.6932 272.451 15.6932C275.638 15.6932 277.548 17.7898 277.548 21.2841V37H283.718V20.3295C283.735 14.0568 280.156 10.4773 274.752 10.4773C270.832 10.4773 268.138 12.3523 266.945 15.267H266.638V10.8182H260.741V37H266.911V21.6591ZM289.991 37H296.161V10.8182H289.991V37ZM293.093 7.10227C295.053 7.10227 296.656 5.60227 296.656 3.76136C296.656 1.90341 295.053 0.403408 293.093 0.403408C291.116 0.403408 289.513 1.90341 289.513 3.76136C289.513 5.60227 291.116 7.10227 293.093 7.10227ZM308.677 21.6591C308.677 17.875 310.961 15.6932 314.217 15.6932C317.404 15.6932 319.313 17.7898 319.313 21.2841V37H325.484V20.3295C325.501 14.0568 321.921 10.4773 316.518 10.4773C312.597 10.4773 309.904 12.3523 308.711 15.267H308.404V10.8182H302.506V37H308.677V21.6591ZM343.143 47.3636C350.217 47.3636 355.433 44.125 355.433 37.4261V10.8182H349.347V15.1477H349.006C348.069 13.2557 346.109 10.4773 341.489 10.4773C335.438 10.4773 330.683 15.2159 330.683 23.8239C330.683 32.3636 335.438 36.625 341.472 36.625C345.955 36.625 348.052 34.2216 349.006 32.2955H349.313V37.2557C349.313 41.108 346.756 42.6932 343.245 42.6932C339.529 42.6932 337.893 40.9375 337.143 39.4034L331.586 40.75C332.711 44.4148 336.478 47.3636 343.143 47.3636ZM343.194 31.7841C339.12 31.7841 336.972 28.6136 336.972 23.7898C336.972 19.0341 339.086 15.5398 343.194 15.5398C347.165 15.5398 349.347 18.8295 349.347 23.7898C349.347 28.7841 347.131 31.7841 343.194 31.7841ZM373.663 37H379.833V10.8182H373.663V37ZM376.765 7.10227C378.725 7.10227 380.327 5.60227 380.327 3.76136C380.327 1.90341 378.725 0.403408 376.765 0.403408C374.788 0.403408 373.185 1.90341 373.185 3.76136C373.185 5.60227 374.788 7.10227 376.765 7.10227ZM395.894 37.4602C400.394 37.4602 402.423 34.7841 403.394 32.875H403.769V37H409.837V2.09091H403.65V15.1477H403.394C402.457 13.2557 400.531 10.4773 395.911 10.4773C389.86 10.4773 385.104 15.2159 385.104 23.9432C385.104 32.5682 389.724 37.4602 395.894 37.4602ZM397.616 32.3977C393.542 32.3977 391.394 28.8182 391.394 23.9091C391.394 19.0341 393.508 15.5398 397.616 15.5398C401.587 15.5398 403.769 18.8295 403.769 23.9091C403.769 28.9886 401.553 32.3977 397.616 32.3977ZM428.004 37.5114C434.106 37.5114 438.299 34.5284 439.39 29.9773L433.629 29.3295C432.793 31.5455 430.748 32.7045 428.089 32.7045C424.1 32.7045 421.458 30.0795 421.407 25.5966H439.646V23.7045C439.646 14.517 434.123 10.4773 427.68 10.4773C420.18 10.4773 415.288 15.983 415.288 24.0625C415.288 32.2784 420.112 37.5114 428.004 37.5114ZM421.424 21.4375C421.612 18.0966 424.083 15.2841 427.765 15.2841C431.31 15.2841 433.697 17.875 433.731 21.4375H421.424ZM452.4 37.5284C456.508 37.5284 458.962 35.6023 460.087 33.4034H460.292V37H466.224V19.4773C466.224 12.5568 460.582 10.4773 455.587 10.4773C450.082 10.4773 445.854 12.9318 444.491 17.7045L450.252 18.5227C450.866 16.733 452.604 15.1989 455.621 15.1989C458.485 15.1989 460.053 16.6648 460.053 19.2386V19.3409C460.053 21.1136 458.195 21.1989 453.576 21.6932C448.496 22.2386 443.638 23.7557 443.638 29.6534C443.638 34.8011 447.406 37.5284 452.4 37.5284ZM454.002 32.9943C451.428 32.9943 449.587 31.8182 449.587 29.5511C449.587 27.1818 451.65 26.1932 454.411 25.8011C456.031 25.5795 459.269 25.1705 460.07 24.5227V27.608C460.07 30.5227 457.718 32.9943 454.002 32.9943ZM493.121 17.7386C492.269 13.3068 488.724 10.4773 482.587 10.4773C476.281 10.4773 471.985 13.5795 472.002 18.4205C471.985 22.2386 474.337 24.7614 479.366 25.8011L483.832 26.7386C486.235 27.267 487.36 28.2386 487.36 29.7216C487.36 31.5114 485.417 32.858 482.485 32.858C479.656 32.858 477.815 31.6307 477.286 29.2784L471.269 29.858C472.036 34.6648 476.076 37.5114 482.502 37.5114C489.048 37.5114 493.667 34.1193 493.684 29.1591C493.667 25.4261 491.263 23.142 486.32 22.0682L481.854 21.1136C479.195 20.517 478.138 19.5966 478.156 18.0795C478.138 16.3068 480.099 15.0795 482.673 15.0795C485.519 15.0795 487.019 16.6307 487.496 18.3523L493.121 17.7386ZM523.752 10.8182H518.587V4.54545H512.417V10.8182H508.701V15.5909H512.417V30.1477C512.383 35.0739 515.962 37.4943 520.599 37.358C522.354 37.3068 523.565 36.9659 524.229 36.7443L523.19 31.9205C522.849 32.0057 522.15 32.1591 521.383 32.1591C519.832 32.1591 518.587 31.6136 518.587 29.125V15.5909H523.752V10.8182ZM540.052 37.5114C547.722 37.5114 552.597 32.108 552.597 24.0114C552.597 15.8977 547.722 10.4773 540.052 10.4773C532.381 10.4773 527.506 15.8977 527.506 24.0114C527.506 32.108 532.381 37.5114 540.052 37.5114ZM540.086 32.5682C535.842 32.5682 533.762 28.7841 533.762 23.9943C533.762 19.2045 535.842 15.3693 540.086 15.3693C544.262 15.3693 546.342 19.2045 546.342 23.9943C546.342 28.7841 544.262 32.5682 540.086 32.5682ZM569.741 37H575.911V10.8182H569.741V37ZM572.843 7.10227C574.803 7.10227 576.406 5.60227 576.406 3.76136C576.406 1.90341 574.803 0.403408 572.843 0.403408C570.866 0.403408 569.263 1.90341 569.263 3.76136C569.263 5.60227 570.866 7.10227 572.843 7.10227ZM588.427 21.6591C588.427 17.875 590.711 15.6932 593.967 15.6932C597.154 15.6932 599.063 17.7898 599.063 21.2841V37H605.234V20.3295C605.251 14.0568 601.671 10.4773 596.268 10.4773C592.347 10.4773 589.654 12.3523 588.461 15.267H588.154V10.8182H582.256V37H588.427V21.6591ZM621.222 37.4602C625.722 37.4602 627.751 34.7841 628.722 32.875H629.097V37H635.165V2.09091H628.978V15.1477H628.722C627.785 13.2557 625.859 10.4773 621.239 10.4773C615.188 10.4773 610.433 15.2159 610.433 23.9432C610.433 32.5682 615.052 37.4602 621.222 37.4602ZM622.944 32.3977C618.87 32.3977 616.722 28.8182 616.722 23.9091C616.722 19.0341 618.836 15.5398 622.944 15.5398C626.915 15.5398 629.097 18.8295 629.097 23.9091C629.097 28.9886 626.881 32.3977 622.944 32.3977ZM641.741 37H647.911V10.8182H641.741V37ZM644.843 7.10227C646.803 7.10227 648.406 5.60227 648.406 3.76136C648.406 1.90341 646.803 0.403408 644.843 0.403408C642.866 0.403408 641.263 1.90341 641.263 3.76136C641.263 5.60227 642.866 7.10227 644.843 7.10227ZM677.643 10.8182H671.08L665.046 30.267H664.773L658.756 10.8182H652.177L661.501 37H668.319L677.643 10.8182ZM681.913 37H688.083V10.8182H681.913V37ZM685.015 7.10227C686.975 7.10227 688.577 5.60227 688.577 3.76136C688.577 1.90341 686.975 0.403408 685.015 0.403408C683.038 0.403408 681.435 1.90341 681.435 3.76136C681.435 5.60227 683.038 7.10227 685.015 7.10227ZM704.144 37.4602C708.644 37.4602 710.673 34.7841 711.644 32.875H712.019V37H718.087V2.09091H711.9V15.1477H711.644C710.707 13.2557 708.781 10.4773 704.161 10.4773C698.11 10.4773 693.354 15.2159 693.354 23.9432C693.354 32.5682 697.974 37.4602 704.144 37.4602ZM705.866 32.3977C701.792 32.3977 699.644 28.8182 699.644 23.9091C699.644 19.0341 701.758 15.5398 705.866 15.5398C709.837 15.5398 712.019 18.8295 712.019 23.9091C712.019 28.9886 709.803 32.3977 705.866 32.3977ZM741.35 25.9886C741.35 29.9773 738.504 31.9545 735.776 31.9545C732.81 31.9545 730.833 29.858 730.833 26.5341V10.8182H724.663V27.4886C724.663 33.7784 728.242 37.3409 733.39 37.3409C737.31 37.3409 740.072 35.2784 741.265 32.3466H741.538V37H747.521V10.8182H741.35V25.9886ZM761.4 37.5284C765.508 37.5284 767.962 35.6023 769.087 33.4034H769.292V37H775.224V19.4773C775.224 12.5568 769.582 10.4773 764.587 10.4773C759.082 10.4773 754.854 12.9318 753.491 17.7045L759.252 18.5227C759.866 16.733 761.604 15.1989 764.621 15.1989C767.485 15.1989 769.053 16.6648 769.053 19.2386V19.3409C769.053 21.1136 767.195 21.1989 762.576 21.6932C757.496 22.2386 752.638 23.7557 752.638 29.6534C752.638 34.8011 756.406 37.5284 761.4 37.5284ZM763.002 32.9943C760.428 32.9943 758.587 31.8182 758.587 29.5511C758.587 27.1818 760.65 26.1932 763.411 25.8011C765.031 25.5795 768.269 25.1705 769.07 24.5227V27.608C769.07 30.5227 766.718 32.9943 763.002 32.9943ZM787.599 2.09091H781.428V37H787.599V2.09091ZM805.85 37H812.021V10.8182H805.85V37ZM808.952 7.10227C810.913 7.10227 812.515 5.60227 812.515 3.76136C812.515 1.90341 810.913 0.403408 808.952 0.403408C806.975 0.403408 805.373 1.90341 805.373 3.76136C805.373 5.60227 806.975 7.10227 808.952 7.10227ZM824.536 21.6591C824.536 17.875 826.82 15.6932 830.076 15.6932C833.263 15.6932 835.173 17.7898 835.173 21.2841V37H841.343V20.3295C841.36 14.0568 837.781 10.4773 832.377 10.4773C828.457 10.4773 825.763 12.3523 824.57 15.267H824.263V10.8182H818.366V37H824.536V21.6591ZM860.69 10.8182H855.525V4.54545H849.354V10.8182H845.638V15.5909H849.354V30.1477C849.32 35.0739 852.9 37.4943 857.536 37.358C859.292 37.3068 860.502 36.9659 861.167 36.7443L860.127 31.9205C859.786 32.0057 859.087 32.1591 858.32 32.1591C856.769 32.1591 855.525 31.6136 855.525 29.125V15.5909H860.69V10.8182ZM877.16 37.5114C883.262 37.5114 887.455 34.5284 888.546 29.9773L882.785 29.3295C881.95 31.5455 879.904 32.7045 877.245 32.7045C873.256 32.7045 870.614 30.0795 870.563 25.5966H888.802V23.7045C888.802 14.517 883.279 10.4773 876.836 10.4773C869.336 10.4773 864.444 15.983 864.444 24.0625C864.444 32.2784 869.268 37.5114 877.16 37.5114ZM870.58 21.4375C870.768 18.0966 873.239 15.2841 876.921 15.2841C880.467 15.2841 882.853 17.875 882.887 21.4375H870.58ZM905.408 47.3636C912.482 47.3636 917.698 44.125 917.698 37.4261V10.8182H911.613V15.1477H911.272C910.335 13.2557 908.374 10.4773 903.755 10.4773C897.704 10.4773 892.948 15.2159 892.948 23.8239C892.948 32.3636 897.704 36.625 903.738 36.625C908.221 36.625 910.317 34.2216 911.272 32.2955H911.579V37.2557C911.579 41.108 909.022 42.6932 905.511 42.6932C901.795 42.6932 900.158 40.9375 899.408 39.4034L893.852 40.75C894.977 44.4148 898.744 47.3636 905.408 47.3636ZM905.46 31.7841C901.386 31.7841 899.238 28.6136 899.238 23.7898C899.238 19.0341 901.352 15.5398 905.46 15.5398C909.431 15.5398 911.613 18.8295 911.613 23.7898C911.613 28.7841 909.397 31.7841 905.46 31.7841ZM924.022 37H930.192V21.608C930.192 18.2841 932.698 15.9318 936.09 15.9318C937.13 15.9318 938.425 16.1193 938.954 16.2898V10.6136C938.391 10.5114 937.42 10.4432 936.738 10.4432C933.738 10.4432 931.232 12.1477 930.278 15.1818H930.005V10.8182H924.022V37ZM943.053 37H949.224V10.8182H943.053V37ZM946.156 7.10227C948.116 7.10227 949.718 5.60227 949.718 3.76136C949.718 1.90341 948.116 0.403408 946.156 0.403408C944.178 0.403408 942.576 1.90341 942.576 3.76136C942.576 5.60227 944.178 7.10227 946.156 7.10227ZM968.643 10.8182H963.478V4.54545H957.308V10.8182H953.592V15.5909H957.308V30.1477C957.273 35.0739 960.853 37.4943 965.489 37.358C967.245 37.3068 968.455 36.9659 969.12 36.7443L968.08 31.9205C967.739 32.0057 967.04 32.1591 966.273 32.1591C964.722 32.1591 963.478 31.6136 963.478 29.125V15.5909H968.643V10.8182ZM977.638 46.8182C982.445 46.8182 985.224 44.3466 986.707 40.1705L997.224 10.8523L990.627 10.8182L984.576 30.5909H984.303L978.269 10.8182H971.724L981.218 37.5455L980.69 38.9602C979.548 41.9432 977.741 42.1477 975.048 41.3636L973.616 46.1705C974.451 46.5114 975.951 46.8182 977.638 46.8182ZM1007.11 32.2273H1001.66L1001.54 34.1364C1001.25 38.7557 1000.04 43.4602 999.542 45.5227H1003.7C1004.52 43.375 1006.41 38.3977 1006.89 34.1023L1007.11 32.2273ZM33.5845 85H39.755V69.608C39.755 66.2841 42.2607 63.9318 45.6527 63.9318C46.6925 63.9318 47.9879 64.1193 48.5163 64.2898V58.6136C47.9538 58.5114 46.9822 58.4432 46.3004 58.4432C43.3004 58.4432 40.7947 60.1477 39.8402 63.1818H39.5675V58.8182H33.5845V85ZM52.6158 85H58.7862V58.8182H52.6158V85ZM55.718 55.1023C57.6783 55.1023 59.2805 53.6023 59.2805 51.7614C59.2805 49.9034 57.6783 48.4034 55.718 48.4034C53.7408 48.4034 52.1385 49.9034 52.1385 51.7614C52.1385 53.6023 53.7408 55.1023 55.718 55.1023ZM76.5518 85.5114C83.1314 85.5114 87.3246 81.608 87.7678 76.0511H81.87C81.3416 78.8636 79.3132 80.483 76.603 80.483C72.7507 80.483 70.2621 77.2614 70.2621 71.9091C70.2621 66.625 72.8018 63.4545 76.603 63.4545C79.5689 63.4545 81.3928 65.3636 81.87 67.8864H87.7678C87.3416 62.2102 82.9098 58.4773 76.5178 58.4773C68.8473 58.4773 64.0064 64.017 64.0064 72.0114C64.0064 79.9375 68.728 85.5114 76.5518 85.5114ZM99.005 69.6591C99.005 65.875 101.357 63.6932 104.664 63.6932C107.903 63.6932 109.812 65.7557 109.812 69.2841V85H115.982V68.3295C115.982 62.0057 112.403 58.4773 106.965 58.4773C102.942 58.4773 100.386 60.3011 99.1754 63.267H98.8686V50.0909H92.8345V85H99.005V69.6591ZM134.178 85H140.349V58.8182H134.178V85ZM137.281 55.1023C139.241 55.1023 140.843 53.6023 140.843 51.7614C140.843 49.9034 139.241 48.4034 137.281 48.4034C135.303 48.4034 133.701 49.9034 133.701 51.7614C133.701 53.6023 135.303 55.1023 137.281 55.1023ZM156.41 85.4602C160.91 85.4602 162.938 82.7841 163.91 80.875H164.285V85H170.353V50.0909H164.165V63.1477H163.91C162.972 61.2557 161.046 58.4773 156.427 58.4773C150.376 58.4773 145.62 63.2159 145.62 71.9432C145.62 80.5682 150.239 85.4602 156.41 85.4602ZM158.131 80.3977C154.058 80.3977 151.91 76.8182 151.91 71.9091C151.91 67.0341 154.023 63.5398 158.131 63.5398C162.103 63.5398 164.285 66.8295 164.285 71.9091C164.285 76.9886 162.069 80.3977 158.131 80.3977ZM188.519 85.5114C194.621 85.5114 198.815 82.5284 199.906 77.9773L194.144 77.3295C193.309 79.5455 191.263 80.7045 188.604 80.7045C184.616 80.7045 181.974 78.0795 181.923 73.5966H200.161V71.7045C200.161 62.517 194.638 58.4773 188.195 58.4773C180.695 58.4773 175.803 63.983 175.803 72.0625C175.803 80.2784 180.627 85.5114 188.519 85.5114ZM181.94 69.4375C182.127 66.0966 184.599 63.2841 188.281 63.2841C191.826 63.2841 194.212 65.875 194.246 69.4375H181.94ZM211.552 69.6591C211.552 65.875 213.836 63.6932 217.092 63.6932C220.279 63.6932 222.188 65.7898 222.188 69.2841V85H228.359V68.3295C228.376 62.0568 224.796 58.4773 219.393 58.4773C215.472 58.4773 212.779 60.3523 211.586 63.267H211.279V58.8182H205.381V85H211.552V69.6591ZM247.705 58.8182H242.54V52.5455H236.37V58.8182H232.654V63.5909H236.37V78.1477C236.336 83.0739 239.915 85.4943 244.552 85.358C246.308 85.3068 247.518 84.9659 248.183 84.7443L247.143 79.9205C246.802 80.0057 246.103 80.1591 245.336 80.1591C243.785 80.1591 242.54 79.6136 242.54 77.125V63.5909H247.705V58.8182ZM252.866 85H259.036V58.8182H252.866V85ZM255.968 55.1023C257.928 55.1023 259.531 53.6023 259.531 51.7614C259.531 49.9034 257.928 48.4034 255.968 48.4034C253.991 48.4034 252.388 49.9034 252.388 51.7614C252.388 53.6023 253.991 55.1023 255.968 55.1023ZM278.455 58.8182H273.29V52.5455H267.12V58.8182H263.404V63.5909H267.12V78.1477C267.086 83.0739 270.665 85.4943 275.302 85.358C277.058 85.3068 278.268 84.9659 278.933 84.7443L277.893 79.9205C277.552 80.0057 276.853 80.1591 276.086 80.1591C274.535 80.1591 273.29 79.6136 273.29 77.125V63.5909H278.455V58.8182ZM287.451 94.8182C292.258 94.8182 295.036 92.3466 296.519 88.1705L307.036 58.8523L300.44 58.8182L294.388 78.5909H294.116L288.082 58.8182H281.536L291.031 85.5455L290.502 86.9602C289.36 89.9432 287.553 90.1477 284.86 89.3636L283.428 94.1705C284.263 94.5114 285.763 94.8182 287.451 94.8182ZM336.487 58.8182H331.049V56.7557C331.049 54.7102 331.901 53.5682 334.202 53.5682C335.174 53.5682 335.992 53.7898 336.504 53.9432L337.748 49.1705C336.947 48.8977 335.191 48.4545 333.06 48.4545C328.509 48.4545 324.879 51.0625 324.879 56.3466V58.8182H321.009V63.5909H324.879V85H331.049V63.5909H336.487V58.8182ZM341.319 85H347.489V69.608C347.489 66.2841 349.995 63.9318 353.387 63.9318C354.427 63.9318 355.722 64.1193 356.251 64.2898V58.6136C355.688 58.5114 354.717 58.4432 354.035 58.4432C351.035 58.4432 348.529 60.1477 347.575 63.1818H347.302V58.8182H341.319V85ZM370.692 85.5114C378.363 85.5114 383.238 80.108 383.238 72.0114C383.238 63.8977 378.363 58.4773 370.692 58.4773C363.022 58.4773 358.147 63.8977 358.147 72.0114C358.147 80.108 363.022 85.5114 370.692 85.5114ZM370.727 80.5682C366.482 80.5682 364.403 76.7841 364.403 71.9943C364.403 67.2045 366.482 63.3693 370.727 63.3693C374.903 63.3693 376.982 67.2045 376.982 71.9943C376.982 76.7841 374.903 80.5682 370.727 80.5682ZM388.475 85H394.646V69.0795C394.646 65.858 396.793 63.6761 399.452 63.6761C402.06 63.6761 403.85 65.4318 403.85 68.125V85H409.901V68.6705C409.901 65.7216 411.657 63.6761 414.64 63.6761C417.129 63.6761 419.106 65.142 419.106 68.3807V85H425.293V67.4261C425.293 61.5795 421.918 58.4773 417.112 58.4773C413.31 58.4773 410.413 60.3523 409.254 63.267H408.981C407.975 60.3011 405.435 58.4773 401.907 58.4773C398.396 58.4773 395.771 60.2841 394.68 63.267H394.373V58.8182H388.475V85ZM456.533 58.8182H451.369V52.5455H445.198V58.8182H441.482V63.5909H445.198V78.1477C445.164 83.0739 448.744 85.4943 453.38 85.358C455.136 85.3068 456.346 84.9659 457.011 84.7443L455.971 79.9205C455.63 80.0057 454.931 80.1591 454.164 80.1591C452.613 80.1591 451.369 79.6136 451.369 77.125V63.5909H456.533V58.8182ZM468.427 69.6591C468.427 65.875 470.779 63.6932 474.086 63.6932C477.325 63.6932 479.234 65.7557 479.234 69.2841V85H485.404V68.3295C485.404 62.0057 481.825 58.4773 476.387 58.4773C472.364 58.4773 469.808 60.3011 468.597 63.267H468.29V50.0909H462.256V85H468.427V69.6591ZM503.285 85.5114C509.387 85.5114 513.58 82.5284 514.671 77.9773L508.91 77.3295C508.075 79.5455 506.029 80.7045 503.37 80.7045C499.381 80.7045 496.739 78.0795 496.688 73.5966H514.927V71.7045C514.927 62.517 509.404 58.4773 502.961 58.4773C495.461 58.4773 490.569 63.983 490.569 72.0625C490.569 80.2784 495.393 85.5114 503.285 85.5114ZM496.705 69.4375C496.893 66.0966 499.364 63.2841 503.046 63.2841C506.592 63.2841 508.978 65.875 509.012 69.4375H496.705ZM538.224 50.0909H532.053V85H538.224V50.0909ZM544.569 85H550.739V58.8182H544.569V85ZM547.671 55.1023C549.631 55.1023 551.234 53.6023 551.234 51.7614C551.234 49.9034 549.631 48.4034 547.671 48.4034C545.694 48.4034 544.092 49.9034 544.092 51.7614C544.092 53.6023 545.694 55.1023 547.671 55.1023ZM563.255 69.6591C563.255 65.875 565.539 63.6932 568.795 63.6932C571.982 63.6932 573.891 65.7898 573.891 69.2841V85H580.062V68.3295C580.079 62.0568 576.499 58.4773 571.096 58.4773C567.175 58.4773 564.482 60.3523 563.289 63.267H562.982V58.8182H557.085V85H563.255V69.6591ZM597.925 85.5114C604.028 85.5114 608.221 82.5284 609.312 77.9773L603.55 77.3295C602.715 79.5455 600.67 80.7045 598.011 80.7045C594.022 80.7045 591.38 78.0795 591.329 73.5966H609.567V71.7045C609.567 62.517 604.045 58.4773 597.602 58.4773C590.102 58.4773 585.21 63.983 585.21 72.0625C585.21 80.2784 590.033 85.5114 597.925 85.5114ZM591.346 69.4375C591.533 66.0966 594.005 63.2841 597.687 63.2841C601.232 63.2841 603.619 65.875 603.653 69.4375H591.346Z" fill="#1F2937"/>
<path d="M638.114 85.5114C645.785 85.5114 650.66 80.108 650.66 72.0114C650.66 63.8977 645.785 58.4773 638.114 58.4773C630.444 58.4773 625.569 63.8977 625.569 72.0114C625.569 80.108 630.444 85.5114 638.114 85.5114ZM638.148 80.5682C633.904 80.5682 631.825 76.7841 631.825 71.9943C631.825 67.2045 633.904 63.3693 638.148 63.3693C642.325 63.3693 644.404 67.2045 644.404 71.9943C644.404 76.7841 642.325 80.5682 638.148 80.5682ZM662.067 69.6591C662.067 65.875 664.352 63.6932 667.607 63.6932C670.795 63.6932 672.704 65.7898 672.704 69.2841V85H678.874V68.3295C678.891 62.0568 675.312 58.4773 669.908 58.4773C665.988 58.4773 663.295 60.3523 662.102 63.267H661.795V58.8182H655.897V85H662.067V69.6591ZM710.127 58.8182H704.962V52.5455H698.792V58.8182H695.076V63.5909H698.792V78.1477C698.758 83.0739 702.337 85.4943 706.974 85.358C708.729 85.3068 709.94 84.9659 710.604 84.7443L709.565 79.9205C709.224 80.0057 708.525 80.1591 707.758 80.1591C706.207 80.1591 704.962 79.6136 704.962 77.125V63.5909H710.127V58.8182ZM722.021 69.6591C722.021 65.875 724.373 63.6932 727.68 63.6932C730.918 63.6932 732.827 65.7557 732.827 69.2841V85H738.998V68.3295C738.998 62.0057 735.418 58.4773 729.981 58.4773C725.958 58.4773 723.401 60.3011 722.191 63.267H721.884V50.0909H715.85V85H722.021V69.6591ZM756.879 85.5114C762.981 85.5114 767.174 82.5284 768.265 77.9773L762.504 77.3295C761.668 79.5455 759.623 80.7045 756.964 80.7045C752.975 80.7045 750.333 78.0795 750.282 73.5966H768.521V71.7045C768.521 62.517 762.998 58.4773 756.555 58.4773C749.055 58.4773 744.163 63.983 744.163 72.0625C744.163 80.2784 748.987 85.5114 756.879 85.5114ZM750.299 69.4375C750.487 66.0966 752.958 63.2841 756.64 63.2841C760.185 63.2841 762.572 65.875 762.606 69.4375H750.299ZM785.647 94.8182H791.817V80.875H792.073C793.045 82.7841 795.073 85.4602 799.573 85.4602C805.744 85.4602 810.363 80.5682 810.363 71.9432C810.363 63.2159 805.607 58.4773 799.556 58.4773C794.937 58.4773 793.011 61.2557 792.073 63.1477H791.715V58.8182H785.647V94.8182ZM791.698 71.9091C791.698 66.8295 793.88 63.5398 797.852 63.5398C801.96 63.5398 804.073 67.0341 804.073 71.9091C804.073 76.8182 801.925 80.3977 797.852 80.3977C793.914 80.3977 791.698 76.9886 791.698 71.9091ZM823.181 85.5284C827.289 85.5284 829.744 83.6023 830.869 81.4034H831.073V85H837.005V67.4773C837.005 60.5568 831.363 58.4773 826.369 58.4773C820.863 58.4773 816.636 60.9318 815.272 65.7045L821.033 66.5227C821.647 64.733 823.386 63.1989 826.403 63.1989C829.266 63.1989 830.835 64.6648 830.835 67.2386V67.3409C830.835 69.1136 828.977 69.1989 824.357 69.6932C819.278 70.2386 814.42 71.7557 814.42 77.6534C814.42 82.8011 818.187 85.5284 823.181 85.5284ZM824.783 80.9943C822.21 80.9943 820.369 79.8182 820.369 77.5511C820.369 75.1818 822.431 74.1932 825.192 73.8011C826.812 73.5795 830.05 73.1705 830.852 72.5227V75.608C830.852 78.5227 828.499 80.9943 824.783 80.9943ZM843.21 94.8182H849.38V80.875H849.636C850.607 82.7841 852.636 85.4602 857.136 85.4602C863.306 85.4602 867.925 80.5682 867.925 71.9432C867.925 63.2159 863.17 58.4773 857.119 58.4773C852.499 58.4773 850.573 61.2557 849.636 63.1477H849.278V58.8182H843.21V94.8182ZM849.261 71.9091C849.261 66.8295 851.442 63.5398 855.414 63.5398C859.522 63.5398 861.636 67.0341 861.636 71.9091C861.636 76.8182 859.488 80.3977 855.414 80.3977C851.477 80.3977 849.261 76.9886 849.261 71.9091ZM884.8 85.5114C890.903 85.5114 895.096 82.5284 896.187 77.9773L890.425 77.3295C889.59 79.5455 887.545 80.7045 884.886 80.7045C880.897 80.7045 878.255 78.0795 878.204 73.5966H896.442V71.7045C896.442 62.517 890.92 58.4773 884.477 58.4773C876.977 58.4773 872.085 63.983 872.085 72.0625C872.085 80.2784 876.908 85.5114 884.8 85.5114ZM878.221 69.4375C878.408 66.0966 880.88 63.2841 884.562 63.2841C888.107 63.2841 890.494 65.875 890.528 69.4375H878.221ZM901.663 85H907.833V69.608C907.833 66.2841 910.339 63.9318 913.731 63.9318C914.771 63.9318 916.066 64.1193 916.594 64.2898V58.6136C916.032 58.5114 915.06 58.4432 914.379 58.4432C911.379 58.4432 908.873 60.1477 907.918 63.1818H907.646V58.8182H901.663V85ZM945.674 58.8182H940.509V52.5455H934.339V58.8182H930.623V63.5909H934.339V78.1477C934.305 83.0739 937.884 85.4943 942.521 85.358C944.276 85.3068 945.487 84.9659 946.151 84.7443L945.112 79.9205C944.771 80.0057 944.072 80.1591 943.305 80.1591C941.754 80.1591 940.509 79.6136 940.509 77.125V63.5909H945.674V58.8182ZM961.974 85.5114C969.644 85.5114 974.519 80.108 974.519 72.0114C974.519 63.8977 969.644 58.4773 961.974 58.4773C954.303 58.4773 949.428 63.8977 949.428 72.0114C949.428 80.108 954.303 85.5114 961.974 85.5114ZM962.008 80.5682C957.763 80.5682 955.684 76.7841 955.684 71.9943C955.684 67.2045 957.763 63.3693 962.008 63.3693C966.184 63.3693 968.263 67.2045 968.263 71.9943C968.263 76.7841 966.184 80.5682 962.008 80.5682ZM368.994 106.818H363.557V104.756C363.557 102.71 364.409 101.568 366.71 101.568C367.682 101.568 368.5 101.79 369.011 101.943L370.256 97.1705C369.455 96.8977 367.699 96.4545 365.568 96.4545C361.017 96.4545 357.386 99.0625 357.386 104.347V106.818H353.517V111.591H357.386V133H363.557V111.591H368.994V106.818ZM373.827 133H379.997V106.818H373.827V133ZM376.929 103.102C378.889 103.102 380.491 101.602 380.491 99.7614C380.491 97.9034 378.889 96.4034 376.929 96.4034C374.952 96.4034 373.349 97.9034 373.349 99.7614C373.349 101.602 374.952 103.102 376.929 103.102ZM392.513 117.659C392.513 113.875 394.797 111.693 398.053 111.693C401.24 111.693 403.149 113.79 403.149 117.284V133H409.32V116.33C409.337 110.057 405.757 106.477 400.354 106.477C396.433 106.477 393.74 108.352 392.547 111.267H392.24V106.818H386.342V133H392.513V117.659ZM423.126 133.528C427.234 133.528 429.689 131.602 430.814 129.403H431.018V133H436.95V115.477C436.95 108.557 431.308 106.477 426.314 106.477C420.808 106.477 416.581 108.932 415.217 113.705L420.979 114.523C421.592 112.733 423.331 111.199 426.348 111.199C429.212 111.199 430.78 112.665 430.78 115.239V115.341C430.78 117.114 428.922 117.199 424.303 117.693C419.223 118.239 414.365 119.756 414.365 125.653C414.365 130.801 418.132 133.528 423.126 133.528ZM424.729 128.994C422.155 128.994 420.314 127.818 420.314 125.551C420.314 123.182 422.376 122.193 425.138 121.801C426.757 121.58 429.996 121.17 430.797 120.523V123.608C430.797 126.523 428.445 128.994 424.729 128.994ZM449.325 98.0909H443.155V133H449.325V98.0909ZM467.577 142.818H473.747V128.875H474.003C474.974 130.784 477.003 133.46 481.503 133.46C487.673 133.46 492.293 128.568 492.293 119.943C492.293 111.216 487.537 106.477 481.486 106.477C476.866 106.477 474.94 109.256 474.003 111.148H473.645V106.818H467.577V142.818ZM473.628 119.909C473.628 114.83 475.81 111.54 479.781 111.54C483.889 111.54 486.003 115.034 486.003 119.909C486.003 124.818 483.855 128.398 479.781 128.398C475.844 128.398 473.628 124.989 473.628 119.909ZM497.577 133H503.747V117.608C503.747 114.284 506.253 111.932 509.645 111.932C510.685 111.932 511.98 112.119 512.509 112.29V106.614C511.946 106.511 510.974 106.443 510.293 106.443C507.293 106.443 504.787 108.148 503.832 111.182H503.56V106.818H497.577V133ZM526.95 133.511C534.621 133.511 539.496 128.108 539.496 120.011C539.496 111.898 534.621 106.477 526.95 106.477C519.28 106.477 514.405 111.898 514.405 120.011C514.405 128.108 519.28 133.511 526.95 133.511ZM526.984 128.568C522.74 128.568 520.661 124.784 520.661 119.994C520.661 115.205 522.74 111.369 526.984 111.369C531.161 111.369 533.24 115.205 533.24 119.994C533.24 124.784 531.161 128.568 526.984 128.568ZM544.733 106.818V134.415C544.733 136.614 543.795 137.79 541.426 137.79C541.119 137.79 540.881 137.773 540.54 137.756V142.784C540.983 142.818 541.358 142.818 541.801 142.818C547.58 142.818 550.903 140.159 550.903 134.5V106.818H544.733ZM547.801 103.102C549.761 103.102 551.364 101.602 551.364 99.7614C551.364 97.9034 549.761 96.4034 547.801 96.4034C545.824 96.4034 544.222 97.9034 544.222 99.7614C544.222 101.602 545.824 103.102 547.801 103.102ZM568.839 133.511C574.942 133.511 579.135 130.528 580.226 125.977L574.464 125.33C573.629 127.545 571.584 128.705 568.925 128.705C564.936 128.705 562.294 126.08 562.243 121.597H580.482V119.705C580.482 110.517 574.959 106.477 568.516 106.477C561.016 106.477 556.124 111.983 556.124 120.062C556.124 128.278 560.947 133.511 568.839 133.511ZM562.26 117.438C562.447 114.097 564.919 111.284 568.601 111.284C572.146 111.284 574.533 113.875 574.567 117.438H562.26ZM597.122 133.511C603.702 133.511 607.895 129.608 608.338 124.051H602.44C601.912 126.864 599.884 128.483 597.173 128.483C593.321 128.483 590.832 125.261 590.832 119.909C590.832 114.625 593.372 111.455 597.173 111.455C600.139 111.455 601.963 113.364 602.44 115.886H608.338C607.912 110.21 603.48 106.477 597.088 106.477C589.418 106.477 584.577 112.017 584.577 120.011C584.577 127.938 589.298 133.511 597.122 133.511ZM626.479 106.818H621.314V100.545H615.143V106.818H611.428V111.591H615.143V126.148C615.109 131.074 618.689 133.494 623.325 133.358C625.081 133.307 626.291 132.966 626.956 132.744L625.916 127.92C625.575 128.006 624.876 128.159 624.109 128.159C622.558 128.159 621.314 127.614 621.314 125.125V111.591H626.479V106.818ZM651.957 113.739C651.105 109.307 647.56 106.477 641.423 106.477C635.116 106.477 630.821 109.58 630.838 114.42C630.821 118.239 633.173 120.761 638.202 121.801L642.668 122.739C645.071 123.267 646.196 124.239 646.196 125.722C646.196 127.511 644.253 128.858 641.321 128.858C638.491 128.858 636.651 127.631 636.122 125.278L630.105 125.858C630.872 130.665 634.912 133.511 641.338 133.511C647.884 133.511 652.503 130.119 652.52 125.159C652.503 121.426 650.099 119.142 645.156 118.068L640.69 117.114C638.031 116.517 636.974 115.597 636.991 114.08C636.974 112.307 638.935 111.08 641.509 111.08C644.355 111.08 645.855 112.631 646.332 114.352L651.957 113.739Z" fill="#3730A3"/>
</svg>
