<svg width="1172" height="51" viewBox="0 0 1172 51" fill="none" xmlns="http://www.w3.org/2000/svg">
<g clip-path="url(#clip0_1_124)">
<path d="M147.599 30.4466V20.2466H144.073V16.8722H147.599V10.8902H151.359V16.8722H156.217V20.2466H151.359V30.2166C151.359 32.4406 152.299 33.3609 154.023 33.3609C154.728 33.3609 155.198 33.2842 155.747 33.0541L157.078 36.1985C156.217 36.582 155.355 36.7354 154.101 36.7354C149.792 36.7354 147.599 34.4346 147.599 30.4466ZM123.469 26.6887C123.469 21.1669 127.386 16.3354 133.184 16.3354C139.138 16.3354 142.898 20.4 142.898 26.6887C142.898 26.9955 142.82 27.379 142.82 27.379H127.073C127.308 31.5203 130.285 33.7444 133.419 33.7444C135.612 33.7444 137.806 32.9008 138.824 30.3699L142.115 31.7504C140.94 34.5113 138.041 37.0421 133.419 37.0421C127.543 37.0421 123.469 32.5173 123.469 26.6887ZM133.184 19.6331C130.442 19.6331 128.248 21.4737 127.465 24.3113H138.981C138.903 22.6241 137.414 19.6331 133.184 19.6331ZM105.215 33.6677H105.058V36.3519H101.455V7.97595H105.215V16.9489L105.058 19.6331H105.215C106.39 17.8692 108.819 16.2587 112.031 16.2587C117.045 16.2587 121.51 20.7068 121.51 26.612C121.51 32.5173 117.123 36.9654 112.031 36.9654C108.819 37.0421 106.312 35.5083 105.215 33.6677ZM117.672 26.6887C117.672 22.3173 114.695 19.6331 111.326 19.6331C108.035 19.6331 104.98 22.2406 104.98 26.6887C104.98 31.1369 107.957 33.7444 111.326 33.7444C114.695 33.6677 117.672 31.0602 117.672 26.6887ZM79.9885 30.5233C79.9885 26.0752 84.0624 23.6978 88.6846 23.6978C91.3483 23.6978 93.3069 24.4647 94.0903 24.9248V24.388C94.0903 21.4737 91.6617 19.6331 88.9197 19.6331C86.8827 19.6331 84.8458 20.6301 84.1407 22.4707L80.6936 21.0135C81.3987 19.2496 83.749 16.2587 88.763 16.2587C93.6203 16.2587 97.6158 19.0963 97.6158 24.6181V36.3519H94.012V33.6677H93.8553C92.7585 35.2782 90.7216 37.0421 87.3528 37.0421C83.3573 37.0421 79.9885 34.588 79.9885 30.5233ZM94.0903 27.9925C94.0903 27.9925 92.5235 26.6887 89.3114 26.6887C85.3942 26.6887 83.8274 28.7594 83.8274 30.5233C83.8274 32.594 86.021 33.591 87.9796 33.591C90.9566 33.6677 94.0903 31.2135 94.0903 27.9925ZM62.988 16.9489L62.8313 19.6331H62.988C64.0065 17.8692 66.5918 16.2587 69.2555 16.2587C74.3478 16.2587 76.8548 19.6331 76.8548 24.4647V36.3519H73.0943V25.0015C73.0943 20.9369 71.0574 19.6331 68.1587 19.6331C64.9466 19.6331 62.9097 22.6241 62.9097 25.6151V36.3519H59.1492V7.97595H62.9097L62.988 16.9489ZM40.2685 33.6677H40.1118L40.2685 36.3519V44.9414H36.508V16.9489H40.1118V19.6331H40.2685C41.4436 17.8692 43.8723 16.2587 47.0843 16.2587C52.0983 16.2587 56.5639 20.7068 56.5639 26.612C56.5639 32.5173 52.0983 37.0421 47.006 37.0421C43.8723 37.0421 41.3653 35.5083 40.2685 33.6677ZM52.7251 26.6887C52.7251 22.3173 49.748 19.6331 46.3792 19.6331C43.0888 19.6331 40.0334 22.2406 40.0334 26.6887C40.0334 31.1369 43.0105 33.7444 46.3792 33.7444C49.748 33.6677 52.7251 31.0602 52.7251 26.6887ZM28.8303 36.4286H32.5908V7.97595H28.8303V36.4286ZM11.5165 7.97595L0.548401 36.4286H4.7006L7.52096 28.6827H19.7425L22.5629 36.4286H26.6367L15.6687 7.97595H11.5165ZM13.475 12.4241H13.6317L18.4107 25.3083H8.77445L13.475 12.4241Z" fill="#B4A6A2"/>
</g>
<path d="M602.114 36.5053C592.695 40.4166 582.497 42.3339 573.234 42.3339C559.455 42.3339 546.144 38.6526 535.323 32.4406C534.389 31.9038 533.689 32.9008 534.467 33.591C544.431 42.4105 557.665 47.779 572.377 47.779C582.808 47.779 594.952 44.4812 603.359 38.4226C604.683 37.4256 603.437 35.8917 602.114 36.5053Z" fill="#B4A6A2"/>
<path d="M596.82 33.0541C596.12 33.591 596.275 34.2812 597.054 34.2045C599.701 33.8978 605.772 33.2075 606.862 34.588C607.952 35.9684 605.695 41.4902 604.683 44.0211C604.371 44.788 605.072 45.0947 605.695 44.5579C610.21 40.8767 611.377 33.0541 610.365 31.9805C609.431 30.6767 601.569 29.7564 596.82 33.0541Z" fill="#B4A6A2"/>
<path d="M613.168 23.6211C610.599 22.1639 607.563 21.7805 604.76 21.8572L612.389 11.1203C613.09 10.2 613.479 9.58648 613.479 9.12633V6.36543C613.479 5.82859 613.09 5.59851 612.623 5.59851H597.91C597.443 5.59851 597.132 5.98197 597.132 6.36543V9.58648C597.132 10.1233 597.521 10.3534 597.988 10.3534H605.695L596.82 22.7775C596.275 23.5444 596.275 24.4647 596.275 25.0015V28.2993C596.275 28.8361 596.82 29.2963 597.287 28.9895C602.269 26.382 608.263 26.612 612.778 28.9895C613.323 29.2963 613.868 28.6827 613.868 28.2993V24.9248C613.868 24.388 613.713 24.0045 613.168 23.6211Z" fill="#B4A6A2"/>
<path d="M539.216 29.7564H543.731C544.275 29.7564 544.587 29.3729 544.587 28.9895V17.0256C544.587 14.418 544.431 10.8135 547.701 10.8135C550.892 10.8135 550.425 14.4947 550.425 17.0256V28.9895C550.425 29.4496 550.814 29.7564 551.204 29.7564H555.719C556.263 29.7564 556.575 29.3729 556.575 28.9895V17.0256C556.575 15.7218 556.497 13.8045 557.042 12.6541C557.509 11.5038 558.599 10.8135 559.689 10.8135C561.012 10.8135 562.024 11.2737 562.257 12.7308C562.491 13.6511 562.413 16.0286 562.413 16.9489V28.9128C562.413 29.3729 562.802 29.6797 563.192 29.6797H567.707C568.251 29.6797 568.563 29.2962 568.563 28.9128V14.6481C568.563 12.194 568.874 9.43307 567.395 7.59247C566.15 5.90525 564.048 5.06165 562.257 5.06165C559.689 5.06165 557.198 6.4421 556.108 9.27969C554.862 6.4421 553.15 5.06165 550.347 5.06165C547.623 5.06165 545.599 6.4421 544.509 9.27969H544.431V6.36541C544.431 5.90525 544.042 5.67518 543.653 5.59849H539.527C538.982 5.59849 538.671 5.98195 538.671 6.36541V28.9128C538.437 29.3729 538.748 29.6797 539.216 29.7564Z" fill="#B4A6A2"/>
<path d="M626.09 5.13831C619.629 5.13831 616.048 10.6601 616.048 17.6391C616.048 24.618 619.629 30.2165 626.09 30.2165C632.317 30.2165 636.287 24.6947 636.287 17.8691C636.365 10.8135 632.784 5.13831 626.09 5.13831ZM626.09 25.5383C622.587 25.5383 622.587 19.633 622.587 16.8721C622.587 14.1112 622.82 9.73981 626.09 9.73981C627.569 9.73981 628.503 10.3533 628.97 11.9639C629.515 13.7278 629.593 16.0285 629.593 17.9458C629.748 20.8601 629.593 25.5383 626.09 25.5383Z" fill="#B4A6A2"/>
<path d="M651.623 5.13831C648.509 5.13831 646.796 6.67214 645.551 9.73981H645.473V6.28868C645.395 5.90522 645.006 5.67515 644.695 5.67515H640.569C640.102 5.67515 639.79 6.05861 639.713 6.36537V28.9127C639.713 29.3729 640.102 29.6797 640.491 29.6797H644.928C645.473 29.6797 645.784 29.2962 645.784 28.9127V16.7954C645.784 15.2616 645.862 13.8812 646.485 12.5007C647.03 11.427 648.042 10.7368 649.054 10.7368C652.168 10.7368 651.856 14.3413 651.856 16.7954V29.0661C651.934 29.4496 652.245 29.7563 652.635 29.7563H657.15C657.617 29.7563 657.928 29.4496 658.006 29.0661V14.8782C658.006 12.6541 658.006 9.66312 656.838 7.89921C655.593 5.82853 653.647 5.13831 651.623 5.13831Z" fill="#B4A6A2"/>
<path d="M585.533 14.4947C582.964 14.8015 579.617 15.0316 577.126 16.0286C574.323 17.2556 572.377 19.6331 572.377 23.2376C572.377 27.8391 575.257 30.0632 579.072 30.0632C582.263 30.0632 583.976 29.3729 586.467 26.8421C587.245 27.9925 587.557 28.5293 589.036 29.7564C589.425 29.9098 589.737 29.9098 590.126 29.6797C590.982 28.9128 592.695 27.5323 593.551 26.7654C593.94 26.4586 593.862 25.9985 593.551 25.615C592.772 24.4647 591.916 23.621 591.916 21.5504V14.7248C591.916 11.8105 592.15 9.12631 589.97 7.13232C588.335 5.5218 585.377 4.90826 583.198 4.90826C578.916 4.90826 574.245 6.4421 573.234 11.5804C573.156 12.1173 573.545 12.4241 573.856 12.5007L578.06 13.0376C578.527 13.0376 578.76 12.5774 578.838 12.2707C579.228 10.5068 580.707 9.66315 582.419 9.66315C583.353 9.66315 584.365 10.0466 584.988 10.8135C585.611 11.7338 585.533 12.9609 585.533 14.0346V14.4947ZM584.599 23.621C583.898 24.8481 582.808 25.615 581.485 25.615C579.772 25.615 578.76 24.3113 578.76 22.394C578.76 18.6361 582.186 17.9459 585.455 17.9459V18.8662C585.533 20.7068 585.533 22.1639 584.599 23.621Z" fill="#B4A6A2"/>
<path d="M534.934 25.615C534.156 24.4647 533.299 23.621 533.299 21.5504V14.7248C533.299 11.8105 533.533 9.12631 531.353 7.13232C529.641 5.5218 526.76 4.90826 524.581 4.90826C520.299 4.90826 515.629 6.4421 514.617 11.5804C514.539 12.1173 514.928 12.4241 515.24 12.5007L519.599 12.9609C520.066 12.9609 520.299 12.5007 520.377 12.194C520.766 10.4301 522.245 9.58646 524.036 9.58646C524.97 9.58646 525.982 9.96992 526.605 10.7368C527.228 11.6571 527.15 12.8842 527.15 13.9579V14.4947C524.503 14.8015 521.156 15.0316 518.665 16.0286C515.862 17.2556 513.916 19.6331 513.916 23.2376C513.916 27.8391 516.796 30.0632 520.611 30.0632C523.802 30.0632 525.515 29.3729 528.006 26.8421C528.784 27.9925 529.096 28.5293 530.575 29.7564C530.964 29.9098 531.275 29.9098 531.665 29.6797C532.521 28.9128 534.234 27.5323 535.09 26.7654C535.323 26.4586 535.245 25.9985 534.934 25.615ZM526.216 23.621C525.515 24.8481 524.425 25.615 523.102 25.615C521.389 25.615 520.455 24.3113 520.455 22.394C520.455 18.6361 523.88 17.9459 527.15 17.9459V18.8662C526.994 20.7068 527.072 22.1639 526.216 23.621Z" fill="#B4A6A2"/>
<path d="M799.78 17.7925H781.448V23.0842H794.453C793.826 30.5233 787.48 33.7444 781.448 33.7444C773.77 33.7444 767.111 27.8391 767.111 19.5564C767.189 11.5038 773.535 5.36843 781.526 5.36843C787.715 5.36843 791.319 9.20302 791.319 9.20302L795.158 5.36843C795.158 5.36843 790.3 0.0767011 781.369 0.0767011C769.931 9.39648e-06 761.235 9.3564 761.235 19.4797C761.235 29.3729 769.461 39.0361 781.604 39.0361C792.259 39.0361 800.093 31.9038 800.093 21.3203C800.093 19.0962 799.78 17.7925 799.78 17.7925Z" fill="#B4A6A2"/>
<path d="M814.744 13.9579C807.223 13.9579 801.817 19.7098 801.817 26.3819C801.817 33.2075 807.066 39.0361 814.822 39.0361C821.873 39.0361 827.592 33.7443 827.592 26.5353C827.592 18.1759 820.933 13.9579 814.744 13.9579ZM814.822 18.8662C818.504 18.8662 822.029 21.7804 822.029 26.4586C822.029 31.0601 818.582 34.0511 814.822 34.0511C810.748 34.0511 807.536 30.8301 807.536 26.3819C807.458 22.0872 810.67 18.8662 814.822 18.8662Z" fill="#B4A6A2"/>
<path d="M842.79 13.9579C835.269 13.9579 829.864 19.7098 829.864 26.3819C829.864 33.2075 835.113 39.0361 842.869 39.0361C849.92 39.0361 855.639 33.7443 855.639 26.5353C855.639 18.1759 848.98 13.9579 842.79 13.9579ZM842.869 18.8662C846.551 18.8662 850.076 21.7804 850.076 26.4586C850.076 31.0601 846.629 34.0511 842.869 34.0511C838.795 34.0511 835.583 30.8301 835.583 26.3819C835.504 22.0872 838.717 18.8662 842.869 18.8662Z" fill="#B4A6A2"/>
<path d="M870.289 13.9579C863.395 13.9579 857.989 19.8631 857.989 26.5353C857.989 34.0511 864.256 39.1128 870.211 39.1128C873.893 39.1128 875.773 37.6556 877.261 36.0451V38.4992C877.261 42.794 874.598 45.4015 870.524 45.4015C866.607 45.4015 864.648 42.5639 863.943 40.9534L858.929 42.9474C860.653 46.5519 864.178 50.3098 870.446 50.3098C877.261 50.3098 882.51 46.0917 882.51 37.1955V14.7248H877.105V16.8722C875.538 15.1083 873.266 13.9579 870.289 13.9579ZM870.759 18.8662C874.128 18.8662 877.575 21.7037 877.575 26.5353C877.575 31.4436 874.128 34.1278 870.681 34.1278C866.998 34.1278 863.551 31.2135 863.551 26.5353C863.63 21.7037 867.155 18.8662 870.759 18.8662Z" fill="#B4A6A2"/>
<path d="M906.484 13.8812C899.981 13.8812 894.497 18.9428 894.497 26.3819C894.497 34.2812 900.608 38.9594 907.11 38.9594C912.516 38.9594 915.885 36.0451 917.843 33.4376L913.378 30.5233C912.203 32.2872 910.322 33.9744 907.11 33.9744C903.506 33.9744 901.861 32.0571 900.843 30.1398L918 23.1609L917.138 21.0902C915.415 17.2556 911.576 13.8812 906.484 13.8812ZM906.64 18.7127C908.991 18.7127 910.636 19.9398 911.419 21.397L899.903 26.0751C899.433 22.4706 902.958 18.7127 906.64 18.7127Z" fill="#B4A6A2"/>
<path d="M886.271 38.2692H891.912V1.30377H886.271V38.2692Z" fill="#B4A6A2"/>
<path d="M1037.01 44.3278C1034.66 44.7113 1032.31 44.8646 1029.81 45.1714L1022.29 23.5443V46.0917C1019.94 46.3218 1017.82 46.6285 1015.55 47.012V5.67517H1021.82L1030.36 29.1428V5.67517H1037.01V44.3278ZM1050.02 20.8601C1052.6 20.8601 1056.52 20.7067 1058.87 20.7067V27.1489C1055.97 27.1489 1052.53 27.1489 1050.02 27.3022V36.8887C1053.86 36.6586 1057.78 36.3519 1061.69 36.1985V42.4105L1043.44 43.791V5.67517H1061.69V12.1173H1050.02C1050.02 12.194 1050.02 20.8601 1050.02 20.8601ZM1086.14 12.194H1079.32V41.8737C1077.13 41.8737 1074.85 41.8737 1072.74 41.9504V12.194H1065.92V5.67517H1086.21C1086.14 5.67517 1086.14 12.194 1086.14 12.194ZM1096.87 20.4H1105.88V26.8421H1096.87V41.4902H1090.37V5.67517H1108.78V12.1173H1096.87C1096.87 12.194 1096.87 20.4 1096.87 20.4ZM1119.51 35.815C1123.27 35.8917 1127.03 36.1985 1130.71 36.3519V42.7173C1124.84 42.3338 1118.96 42.027 1112.93 41.8737V5.67517H1119.51V35.815ZM1136.28 43.1774C1138.39 43.3308 1140.58 43.4075 1142.78 43.6376V5.67517H1136.28V43.1774ZM1171.61 5.67517L1163.23 25.3083L1171.61 46.9353C1169.1 46.6286 1166.67 46.1684 1164.17 45.7849L1159.47 33.821L1154.61 44.7879C1152.26 44.4045 1149.91 44.2511 1147.56 43.9443L1156.02 25.0782L1148.34 5.67517H1155.39L1159.7 16.4887L1164.32 5.67517H1171.61Z" fill="#B4A6A2"/>
<g clip-path="url(#clip1_1_124)">
<path d="M287.688 11.8872C287.688 11.6571 287.453 11.5804 287.296 11.5037C287.139 11.5037 283.77 11.2737 283.77 11.2737C283.77 11.2737 281.42 8.97292 281.185 8.74284C280.95 8.51276 280.402 8.58946 280.245 8.58946C280.245 8.58946 279.697 8.74284 278.913 8.97292C278.13 6.74885 276.798 4.75487 274.369 4.75487H274.134C273.429 3.83457 272.567 3.45111 271.862 3.45111C266.222 3.45111 263.558 10.3534 262.696 13.8812C260.502 14.5714 258.936 15.0316 258.779 15.0316C257.604 15.415 257.525 15.415 257.369 16.5654C257.212 17.5624 254 41.8737 254 41.8737L278.992 46.4752L292.545 43.6376C292.467 43.5609 287.766 12.1173 287.688 11.8872ZM277.581 9.43307C276.955 9.66314 276.25 9.81652 275.466 10.0466V9.58645C275.466 8.206 275.231 7.13231 274.918 6.21201C276.171 6.51878 277.033 7.89923 277.581 9.43307ZM273.429 6.59547C273.743 7.43908 273.978 8.66615 273.978 10.2767V10.5067C272.646 10.8902 271.079 11.3504 269.59 11.8105C270.452 8.74284 272.019 7.13231 273.429 6.59547ZM271.706 5.06164C271.941 5.06164 272.176 5.13833 272.411 5.29171C270.609 6.13532 268.65 8.206 267.867 12.424C266.692 12.8075 265.516 13.1143 264.42 13.4977C265.438 10.2767 267.71 5.06164 271.706 5.06164Z" fill="#B4A6A2"/>
<path d="M287.374 11.5804C287.218 11.5804 283.849 11.3503 283.849 11.3503C283.849 11.3503 281.499 9.0496 281.264 8.81952C281.185 8.74283 281.028 8.66614 280.872 8.66614L278.992 46.4752L292.545 43.6376C292.545 43.6376 287.766 12.194 287.766 11.9639C287.688 11.6571 287.531 11.5804 287.374 11.5804Z" fill="#B4A6A2"/>
<path d="M274.369 18.8662L272.724 23.6978C272.724 23.6978 271.236 22.9309 269.434 22.9309C266.77 22.9309 266.692 24.5414 266.692 24.9248C266.692 27.1489 272.567 27.9925 272.567 33.2075C272.567 37.2722 269.904 39.9564 266.378 39.9564C262.069 39.9564 259.876 37.3489 259.876 37.3489L261.051 33.6677C261.051 33.6677 263.323 35.585 265.203 35.585C266.457 35.585 266.927 34.588 266.927 33.8978C266.927 30.9835 262.069 30.8301 262.069 26.0752C262.069 22.0872 265.046 18.176 270.922 18.176C273.272 18.2527 274.369 18.8662 274.369 18.8662Z" fill="white"/>
<path d="M308.292 27.9925C306.96 27.3023 306.255 26.6887 306.255 25.8451C306.255 24.7714 307.195 24.0812 308.762 24.0812C310.486 24.0812 312.052 24.7714 312.052 24.7714L313.306 21.0902C313.306 21.0902 312.131 20.2466 308.84 20.2466C304.218 20.2466 300.928 22.8542 300.928 26.5354C300.928 28.606 302.416 30.2166 304.453 31.3669C306.098 32.2872 306.647 32.9008 306.647 33.8978C306.647 34.8948 305.863 35.6617 304.296 35.6617C302.024 35.6617 299.909 34.5113 299.909 34.5113L298.656 38.1158C298.656 38.1158 300.614 39.4196 303.905 39.4196C308.684 39.4196 312.131 37.1188 312.131 32.9775C312.131 30.7534 310.407 29.1429 308.292 27.9925ZM327.329 20.2466C324.979 20.2466 323.099 21.3203 321.689 23.0075H321.61L323.647 12.5775H318.32L313.149 39.1128H318.477L320.278 29.9865C320.984 26.5354 322.785 24.388 324.509 24.388C325.684 24.388 326.154 25.1549 326.154 26.3053C326.154 26.9955 326.076 27.9158 325.919 28.606L323.882 39.0361H329.21L331.325 28.2993C331.56 27.1489 331.717 25.7684 331.717 24.9248C331.638 22.0105 330.071 20.2466 327.329 20.2466ZM343.703 20.2466C337.279 20.2466 333.048 25.9218 333.048 32.2105C333.048 36.2752 335.634 39.4963 340.413 39.4963C346.68 39.4963 350.911 33.9745 350.911 27.5323C350.911 23.7745 348.717 20.2466 343.703 20.2466ZM341.118 35.4316C339.316 35.4316 338.532 33.8978 338.532 32.0572C338.532 29.0662 340.099 24.1579 342.998 24.1579C344.878 24.1579 345.505 25.7684 345.505 27.3023C345.505 30.5233 343.938 35.4316 341.118 35.4316ZM364.542 20.2466C360.939 20.2466 358.902 23.3143 358.902 23.3143H358.823L359.137 20.5534H354.436C354.201 22.4707 353.809 25.3083 353.339 27.4557L349.657 46.5519H354.985L356.473 38.806H356.551C356.551 38.806 357.648 39.4963 359.685 39.4963C365.953 39.4963 370.026 33.2075 370.026 26.9188C370.026 23.3143 368.46 20.2466 364.542 20.2466ZM359.45 35.5083C358.04 35.5083 357.257 34.7414 357.257 34.7414L358.118 29.8331C358.745 26.612 360.469 24.388 362.349 24.388C363.994 24.388 364.464 25.8451 364.464 27.2256C364.464 30.7534 362.427 35.5083 359.45 35.5083ZM377.626 12.7308C375.902 12.7308 374.57 14.0346 374.57 15.7218C374.57 17.2557 375.589 18.3293 377.077 18.3293H377.156C378.801 18.3293 380.211 17.2557 380.289 15.3384C380.289 13.8045 379.271 12.7308 377.626 12.7308ZM370.183 39.0361H375.511L379.114 20.5534H373.787L370.183 39.0361ZM392.668 20.6301H388.986L389.142 19.7865C389.456 18.0226 390.552 16.412 392.276 16.412C393.216 16.412 394 16.6421 394 16.6421L395.018 12.5775C395.018 12.5775 394.078 12.1173 392.119 12.1173C390.239 12.1173 388.359 12.6542 386.87 13.8812C385.068 15.4151 384.207 17.5624 383.815 19.7865L383.658 20.6301H381.151L380.368 24.5414H382.875L380.054 39.1128H385.382L388.202 24.5414H391.884L392.668 20.6301ZM405.438 20.6301C405.438 20.6301 402.069 28.8361 400.58 33.2842H400.502C400.424 31.8271 399.17 20.6301 399.17 20.6301H393.529L396.742 37.579C396.82 37.9624 396.742 38.1925 396.663 38.4226C396.036 39.5729 395.018 40.7233 393.764 41.5669C392.746 42.2572 391.649 42.7173 390.787 43.0241L392.276 47.4722C393.373 47.2421 395.566 46.3985 397.525 44.6346C399.954 42.4105 402.226 38.9594 404.498 34.2812L411 20.6301H405.438Z" fill="#B4A6A2"/>
</g>
<defs>
<clipPath id="clip0_1_124">
<rect width="157" height="51" fill="white"/>
</clipPath>
<clipPath id="clip1_1_124">
<rect width="157" height="51" fill="white" transform="translate(254)"/>
</clipPath>
</defs>
</svg>
