<svg width="36" height="35" viewBox="0 0 36 35" fill="none" xmlns="http://www.w3.org/2000/svg">
<path d="M25.4868 2.91675H10.9035C6.87642 2.91675 3.61183 6.18134 3.61183 10.2084V24.7917C3.61183 28.8188 6.87642 32.0834 10.9035 32.0834H25.4868C29.5139 32.0834 32.7785 28.8188 32.7785 24.7917V10.2084C32.7785 6.18134 29.5139 2.91675 25.4868 2.91675Z" stroke="#6B7280" stroke-width="3" stroke-linecap="round" stroke-linejoin="round"/>
<path d="M24.0285 16.5812C24.2085 17.7949 24.0012 19.0344 23.4361 20.1235C22.871 21.2126 21.9768 22.0958 20.8809 22.6474C19.7849 23.199 18.5429 23.391 17.3315 23.1961C16.1201 23.0012 15.0011 22.4292 14.1335 21.5616C13.2659 20.6941 12.6939 19.575 12.499 18.3636C12.3041 17.1522 12.4961 15.9102 13.0477 14.8142C13.5994 13.7183 14.4825 12.8242 15.5716 12.2591C16.6607 11.694 17.9002 11.4866 19.1139 11.6666C20.3519 11.8502 21.4981 12.4271 22.3831 13.3121C23.268 14.197 23.8449 15.3432 24.0285 16.5812Z" stroke="#6B7280" stroke-width="3" stroke-linecap="round" stroke-linejoin="round"/>
<path d="M26.216 9.47925H26.2306" stroke="#6B7280" stroke-width="3" stroke-linecap="round" stroke-linejoin="round"/>
</svg>
