<svg width="36" height="35" viewBox="0 0 36 35" fill="none" xmlns="http://www.w3.org/2000/svg">
<path d="M18.1952 23.3334C21.4168 23.3334 24.0285 20.7217 24.0285 17.5001C24.0285 14.2784 21.4168 11.6667 18.1952 11.6667C14.9735 11.6667 12.3618 14.2784 12.3618 17.5001C12.3618 20.7217 14.9735 23.3334 18.1952 23.3334Z" stroke="#6B7280" stroke-width="3" stroke-linecap="round" stroke-linejoin="round"/>
<path d="M24.0285 11.6666V18.9582C24.0285 20.1186 24.4894 21.2314 25.3099 22.0518C26.1304 22.8723 27.2432 23.3332 28.4035 23.3332C29.5638 23.3332 30.6766 22.8723 31.4971 22.0518C32.3175 21.2314 32.7785 20.1186 32.7785 18.9582V17.4999C32.7783 14.2085 31.6646 11.0139 29.6187 8.43568C27.5727 5.85743 24.7147 4.04711 21.5094 3.29909C18.3041 2.55107 14.9401 2.90934 11.9642 4.31565C8.98834 5.72196 6.57573 8.09359 5.11865 11.0449C3.66157 13.9962 3.24572 17.3537 3.93873 20.5713C4.63173 23.789 6.39282 26.6775 8.93565 28.7674C11.4785 30.8572 14.6535 32.0254 17.9444 32.082C21.2353 32.1386 24.4486 31.0803 27.0618 29.0791" stroke="#6B7280" stroke-width="3" stroke-linecap="round" stroke-linejoin="round"/>
</svg>
