<svg width="36" height="35" viewBox="0 0 36 35" fill="none" xmlns="http://www.w3.org/2000/svg">
<g clip-path="url(#clip0_1_214)">
<path d="M34.2368 4.37502C32.8403 5.36009 31.2941 6.11351 29.6577 6.60627C28.7794 5.59639 27.6121 4.88061 26.3137 4.55574C25.0154 4.23087 23.6486 4.31259 22.3982 4.78984C21.1478 5.26709 20.0741 6.11685 19.3224 7.22419C18.5707 8.33152 18.1772 9.64301 18.1952 10.9813V12.4396C15.6323 12.5061 13.0928 11.9377 10.8029 10.785C8.51291 9.63242 6.54353 7.93136 5.07015 5.83335C5.07015 5.83335 -0.763178 18.9583 12.3618 24.7917C9.35842 26.8304 5.78059 27.8526 2.15349 27.7083C15.2785 35 31.3202 27.7083 31.3202 10.9375C31.3188 10.5313 31.2798 10.1261 31.2035 9.7271C32.6919 8.25928 33.7422 6.40606 34.2368 4.37502V4.37502Z" stroke="#6B7280" stroke-width="3" stroke-linecap="round" stroke-linejoin="round"/>
</g>
<defs>
<clipPath id="clip0_1_214">
<rect width="35" height="35" fill="white" transform="translate(0.69516)"/>
</clipPath>
</defs>
</svg>
